# xmcd
# 
# Track frame offsets:
#     183
#     16150
#     36783
#     57158
#     71720
#     103708
#     125483
#     144450
#     161058
#     175290
# 
# Disc length: 2658
# 
# Revision: 56
# Processed by: cddbd v1.5.2PL0 Copyright (c) Steve Scherf et al.
# Submitted via: fre:ac v1.0.27
# 
DISCID=880a600a
DTITLE=Barry White - Barry White's Greatest Hits
DYEAR=1975
DGENRE=Soul
TTITLE0=What Am I Gonna Do With You
TTITLE1=You're The First, The Last, My Everything
TTITLE2=Can't Get Enough Of Your Love, Babe
TTITLE3=Honey Please, Can't Ya See
TTITLE4=Love Serenade
TTITLE5=Never Never Gonna Give Ya Up
TTITLE6=I'm Gonna Love You Just A Little More, Baby
TTITLE7=I've Found Someone
TTITLE8=I've Got So Much To Give
TTITLE9=Standing In The Shadows Of Love
EXTD=
EXTT0=
EXTT1=
EXTT2=
EXTT3=
EXTT4=
EXTT5=
EXTT6=
EXTT7=
EXTT8=
EXTT9=
PLAYORDER=
